<svg xmlns="http://www.w3.org/2000/svg" width="24" height="24" fill="none" viewBox="0 0 24 24" id="clinic"><path fill="#C4E6FF" fill-rule="evenodd" d="M18 18C18 18.5523 17.5523 19 17 19H16V21H8V19H1V20C1 21.6569 2.34315 23 4 23H20C21.6569 23 23 21.6569 23 20V9.60005C23 8.62111 22.5224 7.70373 21.7204 7.14235L18 4.54004V18Z" clip-rule="evenodd"></path><path fill="#024493" fill-rule="evenodd" d="M12 1C11.3985 1 10.796 1.18081 10.2796 1.5423L2.27961 7.1423C1.47764 7.70369 1 8.62106 1 9.6V20C1 21.6568 2.34315 23 4 23H20C21.6569 23 23 21.6568 23 20V9.6C23 8.62106 22.5224 7.70369 21.7204 7.1423L13.7204 1.5423C13.204 1.18081 12.6015 1 12 1ZM21 9.6C21 9.27369 20.8408 8.9679 20.5735 8.78077L12.5735 3.18077C12.4012 3.06021 12.2011 3 12 3C11.7989 3 11.5988 3.06021 11.4265 3.18077L3.42654 8.78077C3.15921 8.9679 3 9.27369 3 9.6V20C3 20.5523 3.44772 21 4 21H20C20.5523 21 21 20.5523 21 20V9.6Z" clip-rule="evenodd"></path><path fill="#1E93FF" fill-rule="evenodd" d="M12.5 7C12.7761 7 13 7.22386 13 7.5V9H14.5C14.7761 9 15 9.22386 15 9.5V10.5C15 10.7761 14.7761 11 14.5 11H13V12.5C13 12.7761 12.7761 13 12.5 13H11.5C11.2239 13 11 12.7761 11 12.5V11H9.5C9.22386 11 9 10.7761 9 10.5V9.5C9 9.22386 9.22386 9 9.5 9H11V7.5C11 7.22386 11.2239 7 11.5 7H12.5ZM11 15C9.34315 15 8 16.3431 8 18V22C8 22.5523 8.44772 23 9 23H15C15.5523 23 16 22.5523 16 22V18C16 16.3431 14.6569 15 13 15H11ZM10 18C10 17.4477 10.4477 17 11 17H13C13.5523 17 14 17.4477 14 18V21H10V18Z" clip-rule="evenodd"></path></svg>