<svg xmlns="http://www.w3.org/2000/svg" viewBox="0 0 32 32" id="doctor"><path d="M19.542,16.027A7,7,0,0,0,23,10V5a3,3,0,0,0-3-3H12A3,3,0,0,0,9,5v5a7,7,0,0,0,3.458,6.027A9,9,0,0,0,4,25v3a2,2,0,0,0,2,2H26a2,2,0,0,0,2-2V25A9,9,0,0,0,19.542,16.027ZM12,4h8a1,1,0,0,1,1,1V8H11V5A1,1,0,0,1,12,4Zm-1,6H21a5,5,0,0,1-10,0Zm0,12a1,1,0,1,1-1,1A1,1,0,0,1,11,22ZM6,28V25a7,7,0,0,1,4-6.315v1.5a3,3,0,1,0,2,0v-2.1A7.026,7.026,0,0,1,13,18h6v1.142A4,4,0,0,0,16,23v2a1,1,0,0,0,1,1h1a1,1,0,0,0,0-2V23a2,2,0,0,1,4,0v1a1,1,0,0,0,0,2h1a1,1,0,0,0,1-1V23a4,4,0,0,0-3-3.858V18.3A7.009,7.009,0,0,1,26,25v3Z"></path></svg>