<svg xmlns="http://www.w3.org/2000/svg" viewBox="0 0 64 64" id="medicine"><g><path fill="#78b9eb" d="M8 10h14v6H8zM27 30v18H3V30zm-7 11v-4h-3v-3h-4v3h-3v4h3v3h4v-3zm39 2v4h-6v-4a3 3 0 0 1 6 0zm-15 5a3 3 0 0 1 0 6h-4v-6z"></path><circle cx="41" cy="36" r="6" fill="#78b9eb"></circle><circle cx="55" cy="22" r="5.996" fill="#78b9eb"></circle><path fill="#006df0" d="M44 47h-8a4 4 0 0 0 0 8h8a4 4 0 0 0 0-8zm-5 6h-3a2 2 0 0 1 0-4h3zm5 0h-3v-4h3a2 2 0 0 1 0 4zm12-14a4 4 0 0 0-4 4v8a4 4 0 0 0 8 0v-8a4 4 0 0 0-4-4zm2 12a2 2 0 0 1-4 0v-3h4zm0-5h-4v-3a2 2 0 0 1 4 0zM41 29a7 7 0 1 0 7 7 7.008 7.008 0 0 0-7-7zm0 12a5 5 0 1 1 5-5 5.006 5.006 0 0 1-5 5z"></path><path fill="#006df0" d="M37 35h8v2h-8zM59.949 26.95A7 7 0 1 0 55 29a6.957 6.957 0 0 0 4.949-2.05zM50 22a4.966 4.966 0 0 1 .829-2.757l1.343 1.343 1.414-1.414-1.343-1.343a5 5 0 0 1 6.928 6.928L55 20.586 53.586 22l4.171 4.171A5 5 0 0 1 50 22zm-25.63 1.21-1.19-.34A3.009 3.009 0 0 1 21 19.98V17h1a1 1 0 0 0 1-1v-6a1 1 0 0 0-1-1H8a1 1 0 0 0-1 1v6a1 1 0 0 0 1 1h1v2.98a3.009 3.009 0 0 1-2.18 2.89l-1.19.34A5.022 5.022 0 0 0 2 28.02V52a3.009 3.009 0 0 0 3 3h20a3.009 3.009 0 0 0 3-3V28.02a5.022 5.022 0 0 0-3.63-4.81zM9 11h12v4H9zm17 41a1 1 0 0 1-1 1H5a1 1 0 0 1-1-1v-3h22zm0-5H4V31h22zm0-18H4v-.98a3.009 3.009 0 0 1 2.18-2.89l1.19-.34A5.022 5.022 0 0 0 11 19.98V17h8v2.98a5.022 5.022 0 0 0 3.63 4.81l1.19.34A3.009 3.009 0 0 1 26 28.02z"></path><path fill="#006df0" d="M10 42h2v2a1 1 0 0 0 1 1h4a1 1 0 0 0 1-1v-2h2a1 1 0 0 0 1-1v-4a1 1 0 0 0-1-1h-2v-2a1 1 0 0 0-1-1h-4a1 1 0 0 0-1 1v2h-2a1 1 0 0 0-1 1v4a1 1 0 0 0 1 1Zm1-4h2a1 1 0 0 0 1-1v-2h2v2a1 1 0 0 0 1 1h2v2h-2a1 1 0 0 0-1 1v2h-2v-2a1 1 0 0 0-1-1h-2Z"></path></g></svg>